<svg xmlns="http://www.w3.org/2000/svg" width="54" height="54"><desc/><g><g><desc/><path d="M38.322 34.311c0 2.7 1.1 5 1.1 9 .1 6.5-1.5 7.9-2.8 8.3-5.6 1.8-11 2.1-17 0-2.1-.7-2.4-4.1-2.4-8.4 0-4.1 1-6.2 1-8.9 0-9.6.1-6 0-10-.2-11.6-2.9-11 .6-17.1.7-1.1 2.1-4.2 5.3-4.4 1.6-.1 5.9-.1 7.4 0 2.9.2 5.4 3.1 6.1 4.4 3.4 6.5.6 5.6.7 17.1.1 4.3 0 5.4 0 10z" fill-rule="evenodd" fill-opacity=".318"/></g><g><desc/><path d="M37.122 33.011c0 2.7 1.1 5 1.1 9 .1 6.5-1.5 7.9-2.8 8.3-5.6 1.8-11 2.1-17 0-2.1-.7-2.4-4.1-2.4-8.4 0-4.1 1-6.2 1-8.9 0-9.6.1-6 0-10-.2-11.6-2.9-11 .6-17.1.7-1.1 2.1-4.2 5.3-4.4 1.6-.1 5.9-.1 7.4 0 2.9.2 5.4 3.1 6.1 4.4 3.4 6.5.6 5.6.7 17.1.1 4.3 0 5.4 0 10z" fill-rule="evenodd" fill="#666666"/></g><g><desc/><path d="M20.522 21.511s.1.8 2 .2c2.5-.7 6.2-.8 8.6-.1 2.2.6 2.4.2 2.5 0 .1-.2 1.6-3.9 1.4-5-.2-1.1-.9-2.4-3-3-2-.5-5.1-.9-7.5-.5-2.4.4-4.9 1.1-5.3 2.5-.4 1.3 0 2 0 2l1.3 3.9m-.5 3.5c-.2-3-1.7-6.3-1.7-6.3v.5s-.3 8.7.1 12.5c.4 3.8 1.2 3 1.6 2.7.3-.4.1-6.4 0-9.4m12.5 9.9c-.8-.1-9.3 0-10.3 0-2.2 0-2.2 2.3-2.1 3.7.3 2.8 1 4.2 7.2 4.2 3.5 0 5.8-.4 6.4-3 .6-2.5.4-4.7-1.2-4.9m3.4-15.6v-.5s-1.5 3.3-1.7 6.4c-.2 3-.3 9 0 9.4.3.3 1.1 1.1 1.5-2.7.5-3.9.2-12.6.2-12.6z" fill-rule="evenodd" fill="#030202" fill-opacity=".702"/></g><g><desc/><path d="M22.122 2.711c-2.1.9-2.8 3-2.8 3s2.1-.1 3-1.2c.8-1.2.7-2.2-.2-1.8m9.9 0c-1-.4-1 .6-.2 1.7.9 1.1 3.1 1.2 3.1 1.2s-.8-2-2.9-2.9z" fill-rule="evenodd" fill="#fff"/></g><g><desc/><path d="M17.222 17.511c-.6.4-1.3.9-1.4 1.3-.2.4.2.5.3.5.2 0 1-.4 1.3-.5.2 0 .3-.1.5-.5l.5-.8c-.2-.2-.6-.4-1.2 0m21.1 1.4c-.1-.4-.8-.9-1.4-1.3-.6-.5-1-.2-1.1 0-.1.2.3.4.5.8.1.4.2.5.5.5.2 0 1.1.5 1.2.5.2 0 .5-.1.3-.5z" fill-rule="evenodd" fill="#ff6600"/></g><g><desc/><path d="M22.122 25.511v2h2v-2h-2m2 3.9h2v-2h-2v2m2-3.9v2h2v-2h-2m1.9 4h2v-2h-2v2m2-4v2h2v-2h-2z" fill-rule="evenodd" fill="#fff"/></g></g></svg>